<?xml version="1.0" encoding="UTF-8" standalone="no"?>
<!DOCTYPE svg PUBLIC "-//W3C//DTD SVG 1.1//EN"
"http://www.w3.org/Graphics/SVG/1.1/DTD/svg11.dtd">
<svg viewBox="0 0 909 1286" version="1.1" xmlns="http://www.w3.org/2000/svg" xmlns:xlink="http://www.w3.org/1999/xlink">
<defs>
<style type="text/css"><![CDATA[
.g0{
fill: #000;
}
]]></style>
</defs>
<path d="M455.2,116.3h.9v12.6h-.9Z" class="g0"/>
<path d="M552.6,117.2h.9v11.7h-.9Z" class="g0"/>
<path d="M54.1,155.9H391.2v.9H54.1Z" class="g0"/>
<path d="M54.1,180.3H448v.9H54.1Z" class="g0"/>
<path d="M456.1,179.4h97.4v1.8H456.1Z" class="g0"/>
<path d="M551.6,130.7h1.9v50.5h-1.9Z" class="g0"/>
<path d="M391.2,205.5H553.5v.9H391.2Z" class="g0"/>
<path d="M390.3,205.5h.9v25.3h-.9Z" class="g0"/>
<path d="M471.4,206.4h.9v24.4h-.9Z" class="g0"/>
<path d="M552.6,206.4h.9v24.4h-.9Z" class="g0"/>
<path d="M391.2,230.8H553.5v1.8H391.2Z" class="g0"/>
<path d="M391.2,244.3H553.5v1.8H391.2Z" class="g0"/>
<path d="M551.6,232.6h1.9v13.5h-1.9Z" class="g0"/>
<path d="M54.1,258.7H553.5v.9H54.1Z" class="g0"/>
<path d="M103.7,271.3H362.4v.9H103.7Z" class="g0"/>
<path d="M102.8,259.6h.9v49.6h-.9Z" class="g0"/>
<path d="M143.3,272.2h.9v37h-.9Z" class="g0"/>
<path d="M216.3,272.2h.9v37h-.9Z" class="g0"/>
<path d="M289.3,272.2h.9v37h-.9Z" class="g0"/>
<path d="M361.5,259.6h.9v49.6h-.9Z" class="g0"/>
<path d="M430.9,259.6h.9v49.6h-.9Z" class="g0"/>
<path d="M503.9,259.6h.9v49.6h-.9Z" class="g0"/>
<path d="M552.6,259.6h.9v49.6h-.9Z" class="g0"/>
<path d="M54.1,322.7H553.5v1.8H54.1Z" class="g0"/>
<path d="M633.7,323.6H748.2v.9H633.7Z" class="g0"/>
<path d="M119,369.6H553.5v.9H119Z" class="g0"/>
<path d="M54.1,382.2H553.5v.9H54.1Z" class="g0"/>
<path d="M593.1,382.2H748.2v.9H593.1Z" class="g0"/>
<path d="M94.6,394.8H553.5v.9H94.6Z" class="g0"/>
<path d="M54.1,417.3H391.2v.9H54.1Z" class="g0"/>
<path d="M159.5,473.2h82.1v.9H159.5Z" class="g0"/>
<path d="M256.9,473.2h97.3v.9H256.9Z" class="g0"/>
<path d="M690.5,473.2h69.4v.9H690.5Z" class="g0"/>
<path d="M159.5,512h82.1v.9H159.5Z" class="g0"/>
<path d="M256.9,512h97.3v.9H256.9Z" class="g0"/>
<path d="M633.7,512h82v.9h-82Z" class="g0"/>
<path d="M26.1,535.4h1.8v.9H26.1Z" class="g0"/>
<path d="M28.8,535.4h2.7v.9H28.8Z" class="g0"/>
<path d="M32.4,535.4h2.8v.9H32.4Z" class="g0"/>
<path d="M36.1,535.4h2.7v.9H36.1Z" class="g0"/>
<path d="M39.7,535.4h2.7v.9H39.7Z" class="g0"/>
<path d="M43.3,535.4H46v.9H43.3Z" class="g0"/>
<path d="M46.9,535.4h2.7v.9H46.9Z" class="g0"/>
<path d="M50.5,535.4h2.7v.9H50.5Z" class="g0"/>
<path d="M54.1,535.4h2.7v.9H54.1Z" class="g0"/>
<path d="M57.7,535.4h2.7v.9H57.7Z" class="g0"/>
<path d="M61.3,535.4H64v.9H61.3Z" class="g0"/>
<path d="M64.9,535.4h2.7v.9H64.9Z" class="g0"/>
<path d="M68.5,535.4h2.7v.9H68.5Z" class="g0"/>
<path d="M72.1,535.4h2.7v.9H72.1Z" class="g0"/>
<path d="M75.7,535.4h2.7v.9H75.7Z" class="g0"/>
<path d="M79.3,535.4H82v.9H79.3Z" class="g0"/>
<path d="M82.9,535.4h2.7v.9H82.9Z" class="g0"/>
<path d="M86.5,535.4h2.7v.9H86.5Z" class="g0"/>
<path d="M90.1,535.4h2.7v.9H90.1Z" class="g0"/>
<path d="M93.7,535.4h2.7v.9H93.7Z" class="g0"/>
<path d="M97.4,535.4h2.7v.9H97.4Z" class="g0"/>
<path d="M101,535.4h2.7v.9H101Z" class="g0"/>
<path d="M104.6,535.4h2.7v.9h-2.7Z" class="g0"/>
<path d="M108.2,535.4h2.7v.9h-2.7Z" class="g0"/>
<path d="M111.8,535.4h2.7v.9h-2.7Z" class="g0"/>
<path d="M115.4,535.4h2.7v.9h-2.7Z" class="g0"/>
<path d="M119,535.4h2.7v.9H119Z" class="g0"/>
<path d="M122.6,535.4h2.7v.9h-2.7Z" class="g0"/>
<path d="M126.2,535.4h2.7v.9h-2.7Z" class="g0"/>
<path d="M129.8,535.4h2.7v.9h-2.7Z" class="g0"/>
<path d="M133.4,535.4h2.7v.9h-2.7Z" class="g0"/>
<path d="M137,535.4h2.7v.9H137Z" class="g0"/>
<path d="M140.6,535.4h2.7v.9h-2.7Z" class="g0"/>
<path d="M144.2,535.4h2.7v.9h-2.7Z" class="g0"/>
<path d="M147.8,535.4h2.7v.9h-2.7Z" class="g0"/>
<path d="M151.4,535.4h2.7v.9h-2.7Z" class="g0"/>
<path d="M155,535.4h2.7v.9H155Z" class="g0"/>
<path d="M158.6,535.4h2.7v.9h-2.7Z" class="g0"/>
<path d="M162.2,535.4H165v.9h-2.8Z" class="g0"/>
<path d="M165.9,535.4h2.7v.9h-2.7Z" class="g0"/>
<path d="M169.5,535.4h2.7v.9h-2.7Z" class="g0"/>
<path d="M173.1,535.4h2.7v.9h-2.7Z" class="g0"/>
<path d="M176.7,535.4h2.7v.9h-2.7Z" class="g0"/>
<path d="M180.3,535.4H183v.9h-2.7Z" class="g0"/>
<path d="M183.9,535.4h2.7v.9h-2.7Z" class="g0"/>
<path d="M187.5,535.4h2.7v.9h-2.7Z" class="g0"/>
<path d="M191.1,535.4h2.7v.9h-2.7Z" class="g0"/>
<path d="M194.7,535.4h2.7v.9h-2.7Z" class="g0"/>
<path d="M198.3,535.4H201v.9h-2.7Z" class="g0"/>
<path d="M201.9,535.4h2.7v.9h-2.7Z" class="g0"/>
<path d="M205.5,535.4h2.7v.9h-2.7Z" class="g0"/>
<path d="M209.1,535.4h2.7v.9h-2.7Z" class="g0"/>
<path d="M212.7,535.4h2.7v.9h-2.7Z" class="g0"/>
<path d="M216.3,535.4H219v.9h-2.7Z" class="g0"/>
<path d="M219.9,535.4h2.7v.9h-2.7Z" class="g0"/>
<path d="M223.5,535.4h2.7v.9h-2.7Z" class="g0"/>
<path d="M227.1,535.4h2.8v.9h-2.8Z" class="g0"/>
<path d="M230.8,535.4h2.7v.9h-2.7Z" class="g0"/>
<path d="M234.4,535.4h2.7v.9h-2.7Z" class="g0"/>
<path d="M238,535.4h2.7v.9H238Z" class="g0"/>
<path d="M241.6,535.4h2.7v.9h-2.7Z" class="g0"/>
<path d="M245.2,535.4h2.7v.9h-2.7Z" class="g0"/>
<path d="M248.8,535.4h2.7v.9h-2.7Z" class="g0"/>
<path d="M252.4,535.4h2.7v.9h-2.7Z" class="g0"/>
<path d="M256,535.4h2.7v.9H256Z" class="g0"/>
<path d="M259.6,535.4h2.7v.9h-2.7Z" class="g0"/>
<path d="M263.2,535.4h2.7v.9h-2.7Z" class="g0"/>
<path d="M266.8,535.4h2.7v.9h-2.7Z" class="g0"/>
<path d="M270.4,535.4h2.7v.9h-2.7Z" class="g0"/>
<path d="M274,535.4h2.7v.9H274Z" class="g0"/>
<path d="M277.6,535.4h2.7v.9h-2.7Z" class="g0"/>
<path d="M281.2,535.4h2.7v.9h-2.7Z" class="g0"/>
<path d="M284.8,535.4h2.7v.9h-2.7Z" class="g0"/>
<path d="M288.4,535.4h2.7v.9h-2.7Z" class="g0"/>
<path d="M292.1,535.4h2.7v.9h-2.7Z" class="g0"/>
<path d="M295.7,535.4h2.7v.9h-2.7Z" class="g0"/>
<path d="M299.3,535.4H302v.9h-2.7Z" class="g0"/>
<path d="M302.9,535.4h2.7v.9h-2.7Z" class="g0"/>
<path d="M306.5,535.4h2.7v.9h-2.7Z" class="g0"/>
<path d="M310.1,535.4h2.7v.9h-2.7Z" class="g0"/>
<path d="M313.7,535.4h2.7v.9h-2.7Z" class="g0"/>
<path d="M317.3,535.4H320v.9h-2.7Z" class="g0"/>
<path d="M320.9,535.4h2.7v.9h-2.7Z" class="g0"/>
<path d="M324.5,535.4h2.7v.9h-2.7Z" class="g0"/>
<path d="M328.1,535.4h2.7v.9h-2.7Z" class="g0"/>
<path d="M331.7,535.4h2.7v.9h-2.7Z" class="g0"/>
<path d="M335.3,535.4H338v.9h-2.7Z" class="g0"/>
<path d="M338.9,535.4h2.7v.9h-2.7Z" class="g0"/>
<path d="M342.5,535.4h2.7v.9h-2.7Z" class="g0"/>
<path d="M346.1,535.4h2.7v.9h-2.7Z" class="g0"/>
<path d="M349.7,535.4h2.7v.9h-2.7Z" class="g0"/>
<path d="M353.3,535.4H356v.9h-2.7Z" class="g0"/>
<path d="M357,535.4h2.7v.9H357Z" class="g0"/>
<path d="M360.6,535.4h2.7v.9h-2.7Z" class="g0"/>
<path d="M364.2,535.4h2.7v.9h-2.7Z" class="g0"/>
<path d="M367.8,535.4h2.7v.9h-2.7Z" class="g0"/>
<path d="M371.4,535.4h2.7v.9h-2.7Z" class="g0"/>
<path d="M375,535.4h2.7v.9H375Z" class="g0"/>
<path d="M378.6,535.4h2.7v.9h-2.7Z" class="g0"/>
<path d="M382.2,535.4h2.7v.9h-2.7Z" class="g0"/>
<path d="M385.8,535.4h2.7v.9h-2.7Z" class="g0"/>
<path d="M389.4,535.4h2.7v.9h-2.7Z" class="g0"/>
<path d="M393,535.4h2.7v.9H393Z" class="g0"/>
<path d="M396.6,535.4h2.7v.9h-2.7Z" class="g0"/>
<path d="M400.2,535.4h2.7v.9h-2.7Z" class="g0"/>
<path d="M403.8,535.4h2.7v.9h-2.7Z" class="g0"/>
<path d="M407.4,535.4h2.7v.9h-2.7Z" class="g0"/>
<path d="M411,535.4h2.7v.9H411Z" class="g0"/>
<path d="M414.6,535.4h2.7v.9h-2.7Z" class="g0"/>
<path d="M418.2,535.4h2.7v.9h-2.7Z" class="g0"/>
<path d="M421.8,535.4h2.8v.9h-2.8Z" class="g0"/>
<path d="M425.5,535.4h2.7v.9h-2.7Z" class="g0"/>
<path d="M429.1,535.4h2.7v.9h-2.7Z" class="g0"/>
<path d="M432.7,535.4h2.7v.9h-2.7Z" class="g0"/>
<path d="M436.3,535.4H439v.9h-2.7Z" class="g0"/>
<path d="M439.9,535.4h2.7v.9h-2.7Z" class="g0"/>
<path d="M443.5,535.4h2.7v.9h-2.7Z" class="g0"/>
<path d="M447.1,535.4h2.7v.9h-2.7Z" class="g0"/>
<path d="M450.7,535.4h2.7v.9h-2.7Z" class="g0"/>
<path d="M454.3,535.4H457v.9h-2.7Z" class="g0"/>
<path d="M457.9,535.4h2.7v.9h-2.7Z" class="g0"/>
<path d="M461.5,535.4h2.7v.9h-2.7Z" class="g0"/>
<path d="M465.1,535.4h2.7v.9h-2.7Z" class="g0"/>
<path d="M468.7,535.4h2.7v.9h-2.7Z" class="g0"/>
<path d="M472.3,535.4H475v.9h-2.7Z" class="g0"/>
<path d="M475.9,535.4h2.7v.9h-2.7Z" class="g0"/>
<path d="M479.5,535.4h2.7v.9h-2.7Z" class="g0"/>
<path d="M483.1,535.4h2.7v.9h-2.7Z" class="g0"/>
<path d="M486.8,535.4h2.7v.9h-2.7Z" class="g0"/>
<path d="M490.4,535.4h2.7v.9h-2.7Z" class="g0"/>
<path d="M494,535.4h2.7v.9H494Z" class="g0"/>
<path d="M497.6,535.4h2.7v.9h-2.7Z" class="g0"/>
<path d="M501.2,535.4h2.7v.9h-2.7Z" class="g0"/>
<path d="M504.8,535.4h2.7v.9h-2.7Z" class="g0"/>
<path d="M508.4,535.4h2.7v.9h-2.7Z" class="g0"/>
<path d="M512,535.4h2.7v.9H512Z" class="g0"/>
<path d="M515.6,535.4h2.7v.9h-2.7Z" class="g0"/>
<path d="M519.2,535.4h2.7v.9h-2.7Z" class="g0"/>
<path d="M522.8,535.4h2.7v.9h-2.7Z" class="g0"/>
<path d="M526.4,535.4h2.7v.9h-2.7Z" class="g0"/>
<path d="M530,535.4h2.7v.9H530Z" class="g0"/>
<path d="M533.6,535.4h2.7v.9h-2.7Z" class="g0"/>
<path d="M537.2,535.4h2.7v.9h-2.7Z" class="g0"/>
<path d="M540.8,535.4h2.7v.9h-2.7Z" class="g0"/>
<path d="M544.4,535.4h2.7v.9h-2.7Z" class="g0"/>
<path d="M548,535.4h2.7v.9H548Z" class="g0"/>
<path d="M551.6,535.4h2.8v.9h-2.8Z" class="g0"/>
<path d="M555.3,535.4H558v.9h-2.7Z" class="g0"/>
<path d="M558.9,535.4h2.7v.9h-2.7Z" class="g0"/>
<path d="M560.7,59.5h.9V524.6h-.9Z" class="g0"/>
<path d="M576.9,59.5h.9v.9h-.9Z" class="g0"/>
<path d="M576.9,61.3h.9V64h-.9Z" class="g0"/>
<path d="M576.9,64.9h.9v2.7h-.9Z" class="g0"/>
<path d="M576.9,68.5h.9v2.7h-.9Z" class="g0"/>
<path d="M576.9,72.1h.9v2.7h-.9Z" class="g0"/>
<path d="M576.9,75.7h.9v2.7h-.9Z" class="g0"/>
<path d="M576.9,79.3h.9V82h-.9Z" class="g0"/>
<path d="M576.9,82.9h.9v2.7h-.9Z" class="g0"/>
<path d="M576.9,86.5h.9v2.7h-.9Z" class="g0"/>
<path d="M576.9,90.1h.9v2.7h-.9Z" class="g0"/>
<path d="M576.9,93.7h.9v2.7h-.9Z" class="g0"/>
<path d="M576.9,97.3h.9v2.8h-.9Z" class="g0"/>
<path d="M576.9,101h.9v2.7h-.9Z" class="g0"/>
<path d="M576.9,104.6h.9v2.7h-.9Z" class="g0"/>
<path d="M576.9,108.2h.9v2.7h-.9Z" class="g0"/>
<path d="M576.9,111.8h.9v2.7h-.9Z" class="g0"/>
<path d="M576.9,115.4h.9v2.7h-.9Z" class="g0"/>
<path d="M576.9,119h.9v2.7h-.9Z" class="g0"/>
<path d="M576.9,122.6h.9v2.7h-.9Z" class="g0"/>
<path d="M576.9,126.2h.9v2.7h-.9Z" class="g0"/>
<path d="M576.9,129.8h.9v2.7h-.9Z" class="g0"/>
<path d="M576.9,133.4h.9v2.7h-.9Z" class="g0"/>
<path d="M576.9,137h.9v2.7h-.9Z" class="g0"/>
<path d="M576.9,140.6h.9v2.7h-.9Z" class="g0"/>
<path d="M576.9,144.2h.9v2.7h-.9Z" class="g0"/>
<path d="M576.9,147.8h.9v2.7h-.9Z" class="g0"/>
<path d="M576.9,151.4h.9v2.7h-.9Z" class="g0"/>
<path d="M576.9,155h.9v2.7h-.9Z" class="g0"/>
<path d="M576.9,158.6h.9v2.7h-.9Z" class="g0"/>
<path d="M576.9,162.3h.9V165h-.9Z" class="g0"/>
<path d="M576.9,165.9h.9v2.7h-.9Z" class="g0"/>
<path d="M576.9,169.5h.9v2.7h-.9Z" class="g0"/>
<path d="M576.9,173.1h.9v2.7h-.9Z" class="g0"/>
<path d="M576.9,176.7h.9v2.7h-.9Z" class="g0"/>
<path d="M576.9,180.3h.9V183h-.9Z" class="g0"/>
<path d="M576.9,183.9h.9v2.7h-.9Z" class="g0"/>
<path d="M576.9,187.5h.9v2.7h-.9Z" class="g0"/>
<path d="M576.9,191.1h.9v2.7h-.9Z" class="g0"/>
<path d="M576.9,194.7h.9v2.7h-.9Z" class="g0"/>
<path d="M576.9,198.3h.9V201h-.9Z" class="g0"/>
<path d="M576.9,201.9h.9v2.7h-.9Z" class="g0"/>
<path d="M576.9,205.5h.9v2.7h-.9Z" class="g0"/>
<path d="M576.9,209.1h.9v2.7h-.9Z" class="g0"/>
<path d="M576.9,212.7h.9v2.7h-.9Z" class="g0"/>
<path d="M576.9,216.3h.9V219h-.9Z" class="g0"/>
<path d="M576.9,219.9h.9v2.7h-.9Z" class="g0"/>
<path d="M576.9,223.5h.9v2.7h-.9Z" class="g0"/>
<path d="M576.9,227.1h.9v2.8h-.9Z" class="g0"/>
<path d="M576.9,230.8h.9v2.7h-.9Z" class="g0"/>
<path d="M576.9,234.4h.9v2.7h-.9Z" class="g0"/>
<path d="M576.9,238h.9v2.7h-.9Z" class="g0"/>
<path d="M576.9,241.6h.9v2.7h-.9Z" class="g0"/>
<path d="M576.9,245.2h.9v2.7h-.9Z" class="g0"/>
<path d="M576.9,248.8h.9v2.7h-.9Z" class="g0"/>
<path d="M576.9,252.4h.9v2.7h-.9Z" class="g0"/>
<path d="M576.9,256h.9v2.7h-.9Z" class="g0"/>
<path d="M576.9,259.6h.9v2.7h-.9Z" class="g0"/>
<path d="M576.9,263.2h.9v2.7h-.9Z" class="g0"/>
<path d="M576.9,266.8h.9v2.7h-.9Z" class="g0"/>
<path d="M576.9,270.4h.9v2.7h-.9Z" class="g0"/>
<path d="M576.9,274h.9v2.7h-.9Z" class="g0"/>
<path d="M576.9,277.6h.9v2.7h-.9Z" class="g0"/>
<path d="M576.9,281.2h.9v2.7h-.9Z" class="g0"/>
<path d="M576.9,284.8h.9v2.7h-.9Z" class="g0"/>
<path d="M576.9,288.4h.9v2.7h-.9Z" class="g0"/>
<path d="M576.9,292h.9v2.8h-.9Z" class="g0"/>
<path d="M576.9,295.7h.9v2.7h-.9Z" class="g0"/>
<path d="M576.9,299.3h.9V302h-.9Z" class="g0"/>
<path d="M576.9,302.9h.9v2.7h-.9Z" class="g0"/>
<path d="M576.9,306.5h.9v2.7h-.9Z" class="g0"/>
<path d="M576.9,310.1h.9v2.7h-.9Z" class="g0"/>
<path d="M576.9,313.7h.9v2.7h-.9Z" class="g0"/>
<path d="M576.9,317.3h.9V320h-.9Z" class="g0"/>
<path d="M576.9,320.9h.9v2.7h-.9Z" class="g0"/>
<path d="M576.9,324.5h.9v2.7h-.9Z" class="g0"/>
<path d="M576.9,328.1h.9v2.7h-.9Z" class="g0"/>
<path d="M576.9,331.7h.9v2.7h-.9Z" class="g0"/>
<path d="M576.9,335.3h.9V338h-.9Z" class="g0"/>
<path d="M576.9,338.9h.9v2.7h-.9Z" class="g0"/>
<path d="M576.9,342.5h.9v2.7h-.9Z" class="g0"/>
<path d="M576.9,346.1h.9v2.7h-.9Z" class="g0"/>
<path d="M576.9,349.7h.9v2.7h-.9Z" class="g0"/>
<path d="M576.9,353.3h.9V356h-.9Z" class="g0"/>
<path d="M576.9,357h.9v2.7h-.9Z" class="g0"/>
<path d="M576.9,360.6h.9v2.7h-.9Z" class="g0"/>
<path d="M576.9,364.2h.9v2.7h-.9Z" class="g0"/>
<path d="M576.9,367.8h.9v2.7h-.9Z" class="g0"/>
<path d="M576.9,371.4h.9v2.7h-.9Z" class="g0"/>
<path d="M576.9,375h.9v2.7h-.9Z" class="g0"/>
<path d="M576.9,378.6h.9v2.7h-.9Z" class="g0"/>
<path d="M576.9,382.2h.9v2.7h-.9Z" class="g0"/>
<path d="M576.9,385.8h.9v2.7h-.9Z" class="g0"/>
<path d="M576.9,389.4h.9v2.7h-.9Z" class="g0"/>
<path d="M576.9,393h.9v2.7h-.9Z" class="g0"/>
<path d="M576.9,396.6h.9v2.7h-.9Z" class="g0"/>
<path d="M576.9,400.2h.9v2.7h-.9Z" class="g0"/>
<path d="M576.9,403.8h.9v2.7h-.9Z" class="g0"/>
<path d="M576.9,407.4h.9v2.7h-.9Z" class="g0"/>
<path d="M576.9,411h.9v2.7h-.9Z" class="g0"/>
<path d="M576.9,414.6h.9v2.7h-.9Z" class="g0"/>
<path d="M576.9,418.2h.9v2.7h-.9Z" class="g0"/>
<path d="M576.9,421.8h.9v2.8h-.9Z" class="g0"/>
<path d="M576.9,425.5h.9v2.7h-.9Z" class="g0"/>
<path d="M576.9,429.1h.9v2.7h-.9Z" class="g0"/>
<path d="M576.9,432.7h.9v2.7h-.9Z" class="g0"/>
<path d="M576.9,436.3h.9V439h-.9Z" class="g0"/>
<path d="M576.9,439.9h.9v2.7h-.9Z" class="g0"/>
<path d="M576.9,443.5h.9v2.7h-.9Z" class="g0"/>
<path d="M576.9,447.1h.9v2.7h-.9Z" class="g0"/>
<path d="M576.9,450.7h.9v2.7h-.9Z" class="g0"/>
<path d="M576.9,454.3h.9V457h-.9Z" class="g0"/>
<path d="M576.9,457.9h.9v2.7h-.9Z" class="g0"/>
<path d="M576.9,461.5h.9v2.7h-.9Z" class="g0"/>
<path d="M576.9,465.1h.9v2.7h-.9Z" class="g0"/>
<path d="M576.9,468.7h.9v2.7h-.9Z" class="g0"/>
<path d="M576.9,472.3h.9V475h-.9Z" class="g0"/>
<path d="M576.9,475.9h.9v2.7h-.9Z" class="g0"/>
<path d="M576.9,479.5h.9v2.7h-.9Z" class="g0"/>
<path d="M576.9,483.1h.9v2.7h-.9Z" class="g0"/>
<path d="M576.9,486.7h.9v2.8h-.9Z" class="g0"/>
<path d="M576.9,490.4h.9v2.7h-.9Z" class="g0"/>
<path d="M576.9,494h.9v2.7h-.9Z" class="g0"/>
<path d="M576.9,497.6h.9v2.7h-.9Z" class="g0"/>
<path d="M576.9,501.2h.9v2.7h-.9Z" class="g0"/>
<path d="M576.9,504.8h.9v2.7h-.9Z" class="g0"/>
<path d="M576.9,508.4h.9v2.7h-.9Z" class="g0"/>
<path d="M576.9,512h.9v2.7h-.9Z" class="g0"/>
<path d="M576.9,515.6h.9v2.7h-.9Z" class="g0"/>
<path d="M576.9,519.2h.9v2.7h-.9Z" class="g0"/>
<path d="M576.9,522.8h.9v1.8h-.9Z" class="g0"/>
<path d="M585,59.5h.9V524.6H585Z" class="g0"/>
<path d="M454.3,128.9h1.8v52.3h-1.8Z" class="g0"/>
<path d="M551.6,311h1.9v13.5h-1.9Z" class="g0"/>
<path d="M455.2,606.6h.9v12.7h-.9Z" class="g0"/>
<path d="M552.6,607.5h.9v11.8h-.9Z" class="g0"/>
<path d="M54.1,646.3H391.2v.9H54.1Z" class="g0"/>
<path d="M54.1,671.5H448v.9H54.1Z" class="g0"/>
<path d="M456.1,670.6h97.4v1.8H456.1Z" class="g0"/>
<path d="M389.4,230.8h1.8v15.3h-1.8Z" class="g0"/>
<path d="M471.4,232.6h.9v11.7h-.9Z" class="g0"/>
<path d="M551.6,621.1h1.9v51.3h-1.9Z" class="g0"/>
<path d="M391.2,695.9H553.5v.9H391.2Z" class="g0"/>
<path d="M390.3,695.9h.9v25.2h-.9Z" class="g0"/>
<path d="M471.4,696.8h.9v24.3h-.9Z" class="g0"/>
<path d="M552.6,696.8h.9v24.3h-.9Z" class="g0"/>
<path d="M391.2,721.1H553.5v1.8H391.2Z" class="g0"/>
<path d="M391.2,734.6H553.5v1.8H391.2Z" class="g0"/>
<path d="M102.8,311h.9v11.7h-.9Z" class="g0"/>
<path d="M361.5,311h.9v11.7h-.9Z" class="g0"/>
<path d="M430.9,311h.9v11.7h-.9Z" class="g0"/>
<path d="M503.9,311h.9v11.7h-.9Z" class="g0"/>
<path d="M551.6,722.9h1.9v13.5h-1.9Z" class="g0"/>
<path d="M54.1,749.1H553.5v.9H54.1Z" class="g0"/>
<path d="M143.3,311h.9v11.7h-.9Z" class="g0"/>
<path d="M216.3,311h.9v11.7h-.9Z" class="g0"/>
<path d="M289.3,311h.9v11.7h-.9Z" class="g0"/>
<path d="M103.7,761.7H362.4v.9H103.7Z" class="g0"/>
<path d="M102.8,750h.9v49.5h-.9Z" class="g0"/>
<path d="M143.3,762.6h.9v36.9h-.9Z" class="g0"/>
<path d="M216.3,762.6h.9v36.9h-.9Z" class="g0"/>
<path d="M289.3,762.6h.9v36.9h-.9Z" class="g0"/>
<path d="M361.5,750h.9v49.5h-.9Z" class="g0"/>
<path d="M430.9,750h.9v49.5h-.9Z" class="g0"/>
<path d="M503.9,750h.9v49.5h-.9Z" class="g0"/>
<path d="M552.6,750h.9v49.5h-.9Z" class="g0"/>
<path d="M54.1,813.1H553.5v1.8H54.1Z" class="g0"/>
<path d="M633.7,814H748.2v.9H633.7Z" class="g0"/>
<path d="M119,861.7H553.5v.9H119Z" class="g0"/>
<path d="M54.1,874.3H553.5v.9H54.1Z" class="g0"/>
<path d="M593.1,874.3H748.2v.9H593.1Z" class="g0"/>
<path d="M94.6,887H553.5v.9H94.6Z" class="g0"/>
<path d="M54.1,911.3H391.2v.9H54.1Z" class="g0"/>
<path d="M159.5,967.2h82.1v.9H159.5Z" class="g0"/>
<path d="M256.9,967.2h97.3v.9H256.9Z" class="g0"/>
<path d="M690.5,967.2h69.4v.9H690.5Z" class="g0"/>
<path d="M159.5,1003.2h82.1v.9H159.5Z" class="g0"/>
<path d="M256.9,1003.2h97.3v.9H256.9Z" class="g0"/>
<path d="M633.7,1003.2h82v.9h-82Z" class="g0"/>
<path d="M560.7,547.1h.9v468.8h-.9Z" class="g0"/>
<path d="M576.9,548h.9v2.7h-.9Z" class="g0"/>
<path d="M576.9,551.6h.9v2.8h-.9Z" class="g0"/>
<path d="M576.9,555.3h.9V558h-.9Z" class="g0"/>
<path d="M576.9,558.9h.9v2.7h-.9Z" class="g0"/>
<path d="M576.9,562.5h.9v2.7h-.9Z" class="g0"/>
<path d="M576.9,566.1h.9v2.7h-.9Z" class="g0"/>
<path d="M576.9,569.7h.9v2.7h-.9Z" class="g0"/>
<path d="M576.9,573.3h.9V576h-.9Z" class="g0"/>
<path d="M576.9,576.9h.9v2.7h-.9Z" class="g0"/>
<path d="M576.9,580.5h.9v2.7h-.9Z" class="g0"/>
<path d="M576.9,584.1h.9v2.7h-.9Z" class="g0"/>
<path d="M576.9,587.7h.9v2.7h-.9Z" class="g0"/>
<path d="M576.9,591.3h.9V594h-.9Z" class="g0"/>
<path d="M576.9,594.9h.9v2.7h-.9Z" class="g0"/>
<path d="M576.9,598.5h.9v2.7h-.9Z" class="g0"/>
<path d="M576.9,602.1h.9v2.7h-.9Z" class="g0"/>
<path d="M576.9,605.7h.9v2.7h-.9Z" class="g0"/>
<path d="M576.9,609.3h.9V612h-.9Z" class="g0"/>
<path d="M576.9,612.9h.9v2.7h-.9Z" class="g0"/>
<path d="M576.9,616.6h.9v2.7h-.9Z" class="g0"/>
<path d="M576.9,620.2h.9v2.7h-.9Z" class="g0"/>
<path d="M576.9,623.8h.9v2.7h-.9Z" class="g0"/>
<path d="M576.9,627.4h.9v2.7h-.9Z" class="g0"/>
<path d="M576.9,631h.9v2.7h-.9Z" class="g0"/>
<path d="M576.9,634.6h.9v2.7h-.9Z" class="g0"/>
<path d="M576.9,638.2h.9v2.7h-.9Z" class="g0"/>
<path d="M576.9,641.8h.9v2.7h-.9Z" class="g0"/>
<path d="M576.9,645.4h.9v2.7h-.9Z" class="g0"/>
<path d="M576.9,649h.9v2.7h-.9Z" class="g0"/>
<path d="M576.9,652.6h.9v2.7h-.9Z" class="g0"/>
<path d="M576.9,656.2h.9v2.7h-.9Z" class="g0"/>
<path d="M576.9,659.8h.9v2.7h-.9Z" class="g0"/>
<path d="M576.9,663.4h.9v2.7h-.9Z" class="g0"/>
<path d="M576.9,667h.9v2.7h-.9Z" class="g0"/>
<path d="M576.9,670.6h.9v2.7h-.9Z" class="g0"/>
<path d="M576.9,674.2h.9v2.7h-.9Z" class="g0"/>
<path d="M576.9,677.8h.9v2.7h-.9Z" class="g0"/>
<path d="M576.9,681.5h.9v2.7h-.9Z" class="g0"/>
<path d="M576.9,685.1h.9v2.7h-.9Z" class="g0"/>
<path d="M576.9,688.7h.9v2.7h-.9Z" class="g0"/>
<path d="M576.9,692.3h.9V695h-.9Z" class="g0"/>
<path d="M576.9,695.9h.9v2.7h-.9Z" class="g0"/>
<path d="M576.9,699.5h.9v2.7h-.9Z" class="g0"/>
<path d="M576.9,703.1h.9v2.7h-.9Z" class="g0"/>
<path d="M576.9,706.7h.9v2.7h-.9Z" class="g0"/>
<path d="M576.9,710.3h.9V713h-.9Z" class="g0"/>
<path d="M576.9,713.9h.9v2.7h-.9Z" class="g0"/>
<path d="M576.9,717.5h.9v2.7h-.9Z" class="g0"/>
<path d="M576.9,721.1h.9v2.7h-.9Z" class="g0"/>
<path d="M576.9,724.7h.9v2.7h-.9Z" class="g0"/>
<path d="M576.9,728.3h.9V731h-.9Z" class="g0"/>
<path d="M576.9,731.9h.9v2.7h-.9Z" class="g0"/>
<path d="M576.9,735.5h.9v2.7h-.9Z" class="g0"/>
<path d="M576.9,739.1h.9v2.7h-.9Z" class="g0"/>
<path d="M576.9,742.7h.9v2.7h-.9Z" class="g0"/>
<path d="M576.9,746.3h.9v2.8h-.9Z" class="g0"/>
<path d="M576.9,750h.9v2.7h-.9Z" class="g0"/>
<path d="M576.9,753.6h.9v2.7h-.9Z" class="g0"/>
<path d="M576.9,757.2h.9v2.7h-.9Z" class="g0"/>
<path d="M576.9,760.8h.9v2.7h-.9Z" class="g0"/>
<path d="M576.9,764.4h.9v2.7h-.9Z" class="g0"/>
<path d="M576.9,768h.9v2.7h-.9Z" class="g0"/>
<path d="M576.9,771.6h.9v2.7h-.9Z" class="g0"/>
<path d="M576.9,775.2h.9v2.7h-.9Z" class="g0"/>
<path d="M576.9,778.8h.9v2.7h-.9Z" class="g0"/>
<path d="M576.9,782.4h.9v2.7h-.9Z" class="g0"/>
<path d="M576.9,786h.9v2.7h-.9Z" class="g0"/>
<path d="M576.9,789.6h.9v2.7h-.9Z" class="g0"/>
<path d="M576.9,793.2h.9v2.7h-.9Z" class="g0"/>
<path d="M576.9,796.8h.9v2.7h-.9Z" class="g0"/>
<path d="M576.9,800.4h.9v2.7h-.9Z" class="g0"/>
<path d="M576.9,804h.9v2.7h-.9Z" class="g0"/>
<path d="M576.9,807.6h.9v2.7h-.9Z" class="g0"/>
<path d="M576.9,811.3h.9V814h-.9Z" class="g0"/>
<path d="M576.9,814.9h.9v2.7h-.9Z" class="g0"/>
<path d="M576.9,818.5h.9v2.7h-.9Z" class="g0"/>
<path d="M576.9,822.1h.9v2.7h-.9Z" class="g0"/>
<path d="M576.9,825.7h.9v2.7h-.9Z" class="g0"/>
<path d="M576.9,829.3h.9V832h-.9Z" class="g0"/>
<path d="M576.9,832.9h.9v2.7h-.9Z" class="g0"/>
<path d="M576.9,836.5h.9v2.7h-.9Z" class="g0"/>
<path d="M576.9,840.1h.9v2.7h-.9Z" class="g0"/>
<path d="M576.9,843.7h.9v2.7h-.9Z" class="g0"/>
<path d="M576.9,847.3h.9V850h-.9Z" class="g0"/>
<path d="M576.9,850.9h.9v2.7h-.9Z" class="g0"/>
<path d="M576.9,854.5h.9v2.7h-.9Z" class="g0"/>
<path d="M576.9,858.1h.9v2.7h-.9Z" class="g0"/>
<path d="M576.9,861.7h.9v2.7h-.9Z" class="g0"/>
<path d="M576.9,865.3h.9V868h-.9Z" class="g0"/>
<path d="M576.9,868.9h.9v2.7h-.9Z" class="g0"/>
<path d="M576.9,872.5h.9v2.7h-.9Z" class="g0"/>
<path d="M576.9,876.2h.9v2.7h-.9Z" class="g0"/>
<path d="M576.9,879.8h.9v2.7h-.9Z" class="g0"/>
<path d="M576.9,883.4h.9v2.7h-.9Z" class="g0"/>
<path d="M576.9,887h.9v2.7h-.9Z" class="g0"/>
<path d="M576.9,890.6h.9v2.7h-.9Z" class="g0"/>
<path d="M576.9,894.2h.9v2.7h-.9Z" class="g0"/>
<path d="M576.9,897.8h.9v2.7h-.9Z" class="g0"/>
<path d="M576.9,901.4h.9v2.7h-.9Z" class="g0"/>
<path d="M576.9,905h.9v2.7h-.9Z" class="g0"/>
<path d="M576.9,908.6h.9v2.7h-.9Z" class="g0"/>
<path d="M576.9,912.2h.9v2.7h-.9Z" class="g0"/>
<path d="M576.9,915.8h.9v2.7h-.9Z" class="g0"/>
<path d="M576.9,919.4h.9v2.7h-.9Z" class="g0"/>
<path d="M576.9,923h.9v2.7h-.9Z" class="g0"/>
<path d="M576.9,926.6h.9v2.7h-.9Z" class="g0"/>
<path d="M576.9,930.2h.9v2.7h-.9Z" class="g0"/>
<path d="M576.9,933.8h.9v2.7h-.9Z" class="g0"/>
<path d="M576.9,937.4h.9v2.7h-.9Z" class="g0"/>
<path d="M576.9,941.1h.9v2.7h-.9Z" class="g0"/>
<path d="M576.9,944.7h.9v2.7h-.9Z" class="g0"/>
<path d="M576.9,948.3h.9V951h-.9Z" class="g0"/>
<path d="M576.9,951.9h.9v2.7h-.9Z" class="g0"/>
<path d="M576.9,955.5h.9v2.7h-.9Z" class="g0"/>
<path d="M576.9,959.1h.9v2.7h-.9Z" class="g0"/>
<path d="M576.9,962.7h.9v2.7h-.9Z" class="g0"/>
<path d="M576.9,966.3h.9V969h-.9Z" class="g0"/>
<path d="M576.9,969.9h.9v2.7h-.9Z" class="g0"/>
<path d="M576.9,973.5h.9v2.7h-.9Z" class="g0"/>
<path d="M576.9,977.1h.9v2.7h-.9Z" class="g0"/>
<path d="M576.9,980.7h.9v2.7h-.9Z" class="g0"/>
<path d="M576.9,984.3h.9V987h-.9Z" class="g0"/>
<path d="M576.9,987.9h.9v2.7h-.9Z" class="g0"/>
<path d="M576.9,991.5h.9v2.7h-.9Z" class="g0"/>
<path d="M576.9,995.1h.9v2.7h-.9Z" class="g0"/>
<path d="M576.9,998.7h.9v2.7h-.9Z" class="g0"/>
<path d="M576.9,1002.3h.9v2.7h-.9Z" class="g0"/>
<path d="M576.9,1006h.9v2.7h-.9Z" class="g0"/>
<path d="M576.9,1009.6h.9v2.7h-.9Z" class="g0"/>
<path d="M576.9,1013.2h.9v2.7h-.9Z" class="g0"/>
<path d="M585,547.1h.9v468.8H585Z" class="g0"/>
<path d="M454.3,619.3h1.8v53.1h-1.8Z" class="g0"/>
<path d="M551.6,801.3h1.9v13.6h-1.9Z" class="g0"/>
<path d="M389.4,721.1h1.8v15.3h-1.8Z" class="g0"/>
<path d="M471.4,722.9h.9v11.7h-.9Z" class="g0"/>
<path d="M102.8,801.3h.9v11.8h-.9Z" class="g0"/>
<path d="M361.5,801.3h.9v11.8h-.9Z" class="g0"/>
<path d="M430.9,801.3h.9v11.8h-.9Z" class="g0"/>
<path d="M503.9,801.3h.9v11.8h-.9Z" class="g0"/>
<path d="M143.3,801.3h.9v11.8h-.9Z" class="g0"/>
<path d="M216.3,801.3h.9v11.8h-.9Z" class="g0"/>
<path d="M289.3,801.3h.9v11.8h-.9Z" class="g0"/>
<path d="M593.1,91.9H857.2v.9H593.1Z" class="g0"/>
<path d="M456.1,116.3h97.4v.9H456.1Z" class="g0"/>
<path d="M456.1,128.9h97.4v1.8H456.1Z" class="g0"/>
<path d="M456.1,143.3h95.5v.9H456.1Z" class="g0"/>
<path d="M456.1,155.9h95.5v.9H456.1Z" class="g0"/>
<path d="M783.3,180.3h73.9v.9H783.3Z" class="g0"/>
<path d="M609.3,205.5H723.8v.9H609.3Z" class="g0"/>
<path d="M658,231.7H857.2v.9H658Z" class="g0"/>
<path d="M593.1,245.2H857.2v.9H593.1Z" class="g0"/>
<path d="M649.9,258.7H857.2v.9H649.9Z" class="g0"/>
<path d="M593.1,271.3H857.2v.9H593.1Z" class="g0"/>
<path d="M593.1,283.9H857.2v.9H593.1Z" class="g0"/>
<path d="M593.1,296.6H857.2v.9H593.1Z" class="g0"/>
<path d="M54.1,309.2H553.5V311H54.1Z" class="g0"/>
<path d="M775.2,323.6h57.7v.9H775.2Z" class="g0"/>
<path d="M593.1,347.9H857.2v.9H593.1Z" class="g0"/>
<path d="M119,357H553.5v.9H119Z" class="g0"/>
<path d="M593.1,369.6H857.2v.9H593.1Z" class="g0"/>
<path d="M775.2,382.2h57.7v.9H775.2Z" class="g0"/>
<path d="M658,394.8H857.2v.9H658Z" class="g0"/>
<path d="M414.6,417.3H529.1v.9H414.6Z" class="g0"/>
<path d="M119,430H553.5v.9H119Z" class="g0"/>
<path d="M119,442.6H553.5v.9H119Z" class="g0"/>
<path d="M767.1,473.2h90.1v.9H767.1Z" class="g0"/>
<path d="M731,512H841v.9H731Z" class="g0"/>
<path d="M593.1,535.4h.9v.9h-.9Z" class="g0"/>
<path d="M594.9,535.4h2.7v.9h-2.7Z" class="g0"/>
<path d="M598.5,535.4h2.7v.9h-2.7Z" class="g0"/>
<path d="M602.1,535.4h2.7v.9h-2.7Z" class="g0"/>
<path d="M605.7,535.4h2.7v.9h-2.7Z" class="g0"/>
<path d="M609.3,535.4H612v.9h-2.7Z" class="g0"/>
<path d="M612.9,535.4h2.7v.9h-2.7Z" class="g0"/>
<path d="M616.6,535.4h2.7v.9h-2.7Z" class="g0"/>
<path d="M620.2,535.4h2.7v.9h-2.7Z" class="g0"/>
<path d="M623.8,535.4h2.7v.9h-2.7Z" class="g0"/>
<path d="M627.4,535.4h2.7v.9h-2.7Z" class="g0"/>
<path d="M631,535.4h2.7v.9H631Z" class="g0"/>
<path d="M634.6,535.4h2.7v.9h-2.7Z" class="g0"/>
<path d="M638.2,535.4h2.7v.9h-2.7Z" class="g0"/>
<path d="M641.8,535.4h2.7v.9h-2.7Z" class="g0"/>
<path d="M645.4,535.4h2.7v.9h-2.7Z" class="g0"/>
<path d="M649,535.4h2.7v.9H649Z" class="g0"/>
<path d="M652.6,535.4h2.7v.9h-2.7Z" class="g0"/>
<path d="M656.2,535.4h2.7v.9h-2.7Z" class="g0"/>
<path d="M659.8,535.4h2.7v.9h-2.7Z" class="g0"/>
<path d="M663.4,535.4h2.7v.9h-2.7Z" class="g0"/>
<path d="M667,535.4h2.7v.9H667Z" class="g0"/>
<path d="M670.6,535.4h2.7v.9h-2.7Z" class="g0"/>
<path d="M674.2,535.4h2.7v.9h-2.7Z" class="g0"/>
<path d="M677.8,535.4h2.7v.9h-2.7Z" class="g0"/>
<path d="M681.5,535.4h2.7v.9h-2.7Z" class="g0"/>
<path d="M685.1,535.4h2.7v.9h-2.7Z" class="g0"/>
<path d="M688.7,535.4h2.7v.9h-2.7Z" class="g0"/>
<path d="M692.3,535.4H695v.9h-2.7Z" class="g0"/>
<path d="M695.9,535.4h2.7v.9h-2.7Z" class="g0"/>
<path d="M699.5,535.4h2.7v.9h-2.7Z" class="g0"/>
<path d="M703.1,535.4h2.7v.9h-2.7Z" class="g0"/>
<path d="M706.7,535.4h2.7v.9h-2.7Z" class="g0"/>
<path d="M710.3,535.4H713v.9h-2.7Z" class="g0"/>
<path d="M713.9,535.4h2.7v.9h-2.7Z" class="g0"/>
<path d="M717.5,535.4h2.7v.9h-2.7Z" class="g0"/>
<path d="M721.1,535.4h2.7v.9h-2.7Z" class="g0"/>
<path d="M724.7,535.4h2.7v.9h-2.7Z" class="g0"/>
<path d="M728.3,535.4H731v.9h-2.7Z" class="g0"/>
<path d="M731.9,535.4h2.7v.9h-2.7Z" class="g0"/>
<path d="M735.5,535.4h2.7v.9h-2.7Z" class="g0"/>
<path d="M739.1,535.4h2.7v.9h-2.7Z" class="g0"/>
<path d="M742.7,535.4h2.7v.9h-2.7Z" class="g0"/>
<path d="M746.3,535.4h2.8v.9h-2.8Z" class="g0"/>
<path d="M750,535.4h2.7v.9H750Z" class="g0"/>
<path d="M753.6,535.4h2.7v.9h-2.7Z" class="g0"/>
<path d="M757.2,535.4h2.7v.9h-2.7Z" class="g0"/>
<path d="M760.8,535.4h2.7v.9h-2.7Z" class="g0"/>
<path d="M764.4,535.4h2.7v.9h-2.7Z" class="g0"/>
<path d="M768,535.4h2.7v.9H768Z" class="g0"/>
<path d="M771.6,535.4h2.7v.9h-2.7Z" class="g0"/>
<path d="M775.2,535.4h2.7v.9h-2.7Z" class="g0"/>
<path d="M778.8,535.4h2.7v.9h-2.7Z" class="g0"/>
<path d="M782.4,535.4h2.7v.9h-2.7Z" class="g0"/>
<path d="M786,535.4h2.7v.9H786Z" class="g0"/>
<path d="M789.6,535.4h2.7v.9h-2.7Z" class="g0"/>
<path d="M793.2,535.4h2.7v.9h-2.7Z" class="g0"/>
<path d="M796.8,535.4h2.7v.9h-2.7Z" class="g0"/>
<path d="M800.4,535.4h2.7v.9h-2.7Z" class="g0"/>
<path d="M804,535.4h2.7v.9H804Z" class="g0"/>
<path d="M807.6,535.4h2.7v.9h-2.7Z" class="g0"/>
<path d="M811.3,535.4H814v.9h-2.7Z" class="g0"/>
<path d="M814.9,535.4h2.7v.9h-2.7Z" class="g0"/>
<path d="M818.5,535.4h2.7v.9h-2.7Z" class="g0"/>
<path d="M822.1,535.4h2.7v.9h-2.7Z" class="g0"/>
<path d="M825.7,535.4h2.7v.9h-2.7Z" class="g0"/>
<path d="M829.3,535.4H832v.9h-2.7Z" class="g0"/>
<path d="M832.9,535.4h2.7v.9h-2.7Z" class="g0"/>
<path d="M836.5,535.4h2.7v.9h-2.7Z" class="g0"/>
<path d="M840.1,535.4h2.7v.9h-2.7Z" class="g0"/>
<path d="M843.7,535.4h2.7v.9h-2.7Z" class="g0"/>
<path d="M847.3,535.4h1.8v.9h-1.8Z" class="g0"/>
<path d="M593.1,582.3H857.2v.9H593.1Z" class="g0"/>
<path d="M456.1,606.6h97.4v.9H456.1Z" class="g0"/>
<path d="M456.1,619.3h97.4v1.8H456.1Z" class="g0"/>
<path d="M456.1,633.7h95.5v.9H456.1Z" class="g0"/>
<path d="M456.1,646.3h95.5v.9H456.1Z" class="g0"/>
<path d="M783.3,671.5h73.9v.9H783.3Z" class="g0"/>
<path d="M609.3,695.9H723.8v.9H609.3Z" class="g0"/>
<path d="M658,722H857.2v.9H658Z" class="g0"/>
<path d="M593.1,735.5H857.2v.9H593.1Z" class="g0"/>
<path d="M649.9,749.1H857.2v.9H649.9Z" class="g0"/>
<path d="M593.1,761.7H857.2v.9H593.1Z" class="g0"/>
<path d="M593.1,774.3H857.2v.9H593.1Z" class="g0"/>
<path d="M593.1,786.9H857.2v.9H593.1Z" class="g0"/>
<path d="M54.1,799.5H553.5v1.8H54.1Z" class="g0"/>
<path d="M775.2,814h57.7v.9H775.2Z" class="g0"/>
<path d="M593.1,838.3H857.2v.9H593.1Z" class="g0"/>
<path d="M119,849.1H553.5v.9H119Z" class="g0"/>
<path d="M593.1,861.7H857.2v.9H593.1Z" class="g0"/>
<path d="M775.2,874.3h57.7v.9H775.2Z" class="g0"/>
<path d="M658,887H857.2v.9H658Z" class="g0"/>
<path d="M414.6,911.3H529.1v.9H414.6Z" class="g0"/>
<path d="M119,923.9H553.5v.9H119Z" class="g0"/>
<path d="M119,936.5H553.5v.9H119Z" class="g0"/>
<path d="M767.1,967.2h90.1v.9H767.1Z" class="g0"/>
<path d="M731,1003.2H841v.9H731Z" class="g0"/>
</svg>